<?xml version="1.0" encoding="UTF-8" standalone="no"?><!-- Generator: Gravit.io --><svg xmlns="http://www.w3.org/2000/svg" xmlns:xlink="http://www.w3.org/1999/xlink" style="isolation:isolate" viewBox="198.125 63 54.578 41.062" width="54.578pt" height="41.062pt"><g><path d="M 200.97 63 L 249.86 63 C 251.427 63 252.7 64.273 252.7 65.84 L 252.7 101.22 C 252.7 102.787 251.427 104.06 249.86 104.06 L 200.97 104.06 C 199.403 104.06 198.13 102.787 198.13 101.22 L 198.13 65.84 C 198.13 64.273 199.403 63 200.97 63 Z" style="stroke:none;fill:#222222;stroke-miterlimit:10;"/><path d=" M 210.154 72.982 L 222.275 80.484 L 222.275 84.018 L 210.185 91.52 L 207.984 88.172 L 218.028 82.251 L 207.984 76.516 L 210.154 72.982 L 210.154 72.982 Z  M 225.964 97.751 L 225.964 93.907 L 241.464 93.907 L 241.464 97.751 L 225.964 97.751 L 225.964 97.751 Z " fill="rgb(255,255,255)"/></g></svg>